<?xml version="1.0" encoding="UTF-8"?>
<svg version="1.1" xmlns="http://www.w3.org/2000/svg" viewBox="44 100 140 36" width="280" height="72">
<path d="M0 0 C2.9375 2.0625 2.9375 2.0625 5 4 C5.680625 3.360625 6.36125 2.72125 7.0625 2.0625 C10.58232584 -0.40886708 12.71457806 -0.92481716 17 -1 C21.27358325 0.31494869 22.64562889 1.42414695 25 5.25 C26.19428178 9.72855666 25.83245958 11.77737575 24 16 C22.5 18.4375 22.5 18.4375 20 20 C15.56620908 20.65028934 11.60224154 20.97162958 7.6875 18.59765625 C7.130625 18.07042969 6.57375 17.54320313 6 17 C6 16.34 6 15.68 6 15 C5.34 15 4.68 15 4 15 C3.71125 15.639375 3.4225 16.27875 3.125 16.9375 C2 19 2 19 0 20 C-5.03205028 20.62343986 -8.77853376 20.82262012 -13.0625 17.9375 C-15.39595144 14.39968652 -16 12.2362654 -16 8 C-14.7187601 4.08091325 -13.62547612 2.44067635 -10.25 0.0625 C-6.27345095 -1.23752565 -4.02637905 -1.09810338 0 0 Z M-9.875 5.125 C-11.52854531 7.88090884 -11.39365568 9.85075452 -11 13 C-10 15 -10 15 -8 16 C-4.95788569 16.4167552 -4.95788569 16.4167552 -2 16 C-1.34 15.34 -0.68 14.68 0 14 C2.625 13.375 2.625 13.375 5 13 C5 11.02 5 9.04 5 7 C3.5459375 6.5359375 3.5459375 6.5359375 2.0625 6.0625 C-1 5 -1 5 -2 4 C-6.12795128 3.62418498 -6.12795128 3.62418498 -9.875 5.125 Z M10.125 5.125 C8.47145469 7.88090884 8.60634432 9.85075452 9 13 C10 15 10 15 12 16 C15.14924548 16.39365568 17.11909116 16.52854531 19.875 14.875 C21.52854531 12.11909116 21.39365568 10.14924548 21 7 C20 5 20 5 18 4 C14.85075452 3.60634432 12.88090884 3.47145469 10.125 5.125 Z " fill="#ffffff" transform="translate(102,110)"/>
<path d="M0 0 C3.41064923 0.58230597 4.53830677 1.66360557 6.5625 4.4375 C7.02315611 8.51171913 6.12458041 10.77897461 4.0078125 14.23046875 C3.47542969 15.10767578 2.94304687 15.98488281 2.39453125 16.88867188 C1.54955078 18.2431543 1.54955078 18.2431543 0.6875 19.625 C0.13191406 20.53958984 -0.42367187 21.45417969 -0.99609375 22.39648438 C-5.10595238 29.10595238 -5.10595238 29.10595238 -7.4375 31.4375 C-10.875 31.8125 -10.875 31.8125 -14.4375 31.4375 C-16.4375 29.8125 -16.4375 29.8125 -17.4375 27.4375 C-17.20116924 21.44742408 -14.17273611 17.16656555 -11.0625 12.25 C-10.32 11.04053711 -10.32 11.04053711 -9.5625 9.80664062 C-3.90020614 0.700037 -3.90020614 0.700037 0 0 Z " fill="#F2A72E" transform="translate(77.4375,103.5625)"/>
<path d="M0 0 C1.66666667 0.33333333 3.33333333 0.66666667 5 1 C5.33 0.67 5.66 0.34 6 0 C8.67058851 -0.14115161 11.32432238 -0.04247107 14 0 C14.26554688 0.54269531 14.53109375 1.08539063 14.8046875 1.64453125 C15.15789062 2.35996094 15.51109375 3.07539062 15.875 3.8125 C16.22304687 4.52019531 16.57109375 5.22789063 16.9296875 5.95703125 C18.0656486 8.21246418 18.0656486 8.21246418 20 11 C21.65 7.37 23.3 3.74 25 0 C27.97 0 30.94 0 34 0 C34 6.6 34 13.2 34 20 C32.35 20 30.7 20 29 20 C28.67 15.38 28.34 10.76 28 6 C26.02 10.62 24.04 15.24 22 20 C20.35 20 18.7 20 17 20 C15.9955866 17.7101766 14.99632388 15.4183401 14 13.125 C13.71382812 12.47402344 13.42765625 11.82304688 13.1328125 11.15234375 C11 6.2265625 11 6.2265625 11 4 C7.27385847 5.11854586 7.27385847 5.11854586 5 8 C4.77141886 10.0374763 4.58975722 12.08040303 4.4375 14.125 C4.35371094 15.22070312 4.26992187 16.31640625 4.18359375 17.4453125 C4.12300781 18.28835937 4.06242188 19.13140625 4 20 C2.68 20 1.36 20 0 20 C-0.19594676 16.85463232 -0.3803401 13.70869386 -0.5625 10.5625 C-0.61857422 9.66466797 -0.67464844 8.76683594 -0.73242188 7.84179688 C-0.78076172 6.98779297 -0.82910156 6.13378906 -0.87890625 5.25390625 C-0.9260376 4.46314697 -0.97316895 3.6723877 -1.02172852 2.85766602 C-1 1 -1 1 0 0 Z " fill="#ffffff" transform="translate(129,110)"/>
<path d="M0 0 C5.61 0 11.22 0 17 0 C15.98824838 5.0587581 15.12697816 6.51550219 11.9375 10.3125 C11.20402344 11.19550781 10.47054687 12.07851562 9.71484375 12.98828125 C9.14894531 13.65214844 8.58304688 14.31601563 8 15 C10.97 15.33 13.94 15.66 17 16 C17 17.32 17 18.64 17 20 C11.39 20 5.78 20 0 20 C1.01175162 14.9412419 1.87302184 13.48449781 5.0625 9.6875 C5.79597656 8.80449219 6.52945313 7.92148438 7.28515625 7.01171875 C7.85105469 6.34785156 8.41695312 5.68398437 9 5 C6.36 4.67 3.72 4.34 1 4 C0.67 2.68 0.34 1.36 0 0 Z " fill="#ffffff" transform="translate(164,110)"/>
<path d="M0 0 C2 2 2 2 2.3125 5.4375 C2 9 2 9 0.875 10.9375 C-1.88980433 12.50422245 -3.88188517 12.38976435 -7 12 C-9.08477638 10.56222319 -9.81239178 9.40201761 -10.875 7.125 C-11.05721664 4.02731712 -9.79186662 2.45552093 -8 0 C-5.09288879 -1.4535556 -3.10402897 -0.71133997 0 0 Z " fill="#F3A82F" transform="translate(59,105)"/>
<path d="M0 0 C0.99 0 1.98 0 3 0 C3 6.6 3 13.2 3 20 C1.68 20 0.36 20 -1 20 C-1.11381955 13.23405981 -0.88021369 6.71162938 0 0 Z " fill="#ffffff" transform="translate(160,110)"/>
<path d="M0 0 C0.33 0 0.66 0 1 0 C1.33 2.97 1.66 5.94 2 9 C4.31 9 6.62 9 9 9 C8.67 9.66 8.34 10.32 8 11 C2.52887538 11.36474164 2.52887538 11.36474164 0.1875 9.75 C-1.17905461 7.73613005 -1.77903238 6.4306438 -2 4 C-1.0625 1.75 -1.0625 1.75 0 0 Z " fill="#F0B65B" transform="translate(50,106)"/>
<path d="M0 0 C1.65 0 3.3 0 5 0 C5.33 0.99 5.66 1.98 6 3 C5.67 3.66 5.34 4.32 5 5 C3.35 4.67 1.7 4.34 0 4 C0 2.68 0 1.36 0 0 Z " fill="#ffffff" transform="translate(158,102)"/>
</svg>
